<svg height="512pt" viewBox="0 0 512 512" width="512pt" xmlns="http://www.w3.org/2000/svg"><path d="m0 256c0-141.386719 114.613281-256 256-256s256 114.613281 256 256c0 70.691406-28.652344 134.691406-74.980469 181.019531s-110.328125-4.019531-181.019531-4.019531c-70.355469 0-134.082031 50.617188-180.355469 4.679688-46.71875-46.378907-75.644531-110.652344-75.644531-181.679688zm0 0" fill="#d9d9db"/><path d="m256 433c70.691406 0 134.691406 50.347656 181.019531 4.019531s74.980469-110.328125 74.980469-181.019531c0-11.613281-.789062-23.039062-2.285156-34.242188l-147.148438-147.148437s-5.121094 10.589844-15.695312 23.503906l-16.144532-16.121093c-11.347656-12.734376-25.867187-22.792969-42.808593-28.789063-10.648438-3.765625-21.535157-5.703125-31.917969-5.703125-30.488281 0-65.289062 16.703125-85.722656 47.394531l-20.84375-20.285156c-14.476563 40.886719-8.640625 71.914063 5.949218 95.199219 1.816407 14.316406 4.625 31.59375 8.367188 40.273437.175781.40625.335938.824219.488281 1.238281 9.808594 25.113282 21.867188 43.082032 34.433594 55.921876l-9.257813 57.757812h-43.78125c-38.648437 0-69.984374 31.332031-69.984374 69.984375v42.6875c.011718.011719.015624.027344.027343.039063 46.269531 45.882812 109.984375-4.710938 180.324219-4.710938zm0 0" fill="#c8c6cc"/><path d="m312.050781 259.246094h-112.101562l-11.09375 69.253906h134.289062zm0 0" fill="#c2001b"/><path d="m323.148438 328.5h-67.148438v-69.25h56.050781zm0 0" fill="#901"/><path d="m287.917969 53.203125c46.699219 16.523437 75.035156 63.921875 69.132812 113.109375-1.785156 14.882812-4.746093 34.371094-8.800781 43.769531-.175781.40625-.335938.824219-.488281 1.242188-25.578125 65.503906-66.476563 82.449219-91.761719 86.316406-25.285156-3.867187-66.183594-20.8125-91.761719-86.316406-.152343-.417969-.3125-.835938-.488281-1.242188-5.472656-12.699219-8.957031-43.816406-10.25-57.109375-.4375-4.535156-.40625-9.105468.199219-13.628906 7.839843-58.707031 59.351562-91.84375 102.300781-91.84375 10.382812 0 21.269531 1.9375 31.917969 5.703125zm0 0" fill="#ff0335"/><path d="m290.375 54.105469c45.230469 17.265625 72.457031 63.707031 66.726562 111.78125-1.777343 14.9375-4.757812 34.707031-8.851562 44.195312-.199219.457031-.386719.929688-.542969 1.40625-25.597656 65.371094-66.429687 82.292969-91.707031 86.152344v-250.140625c11.1875 0 22.949219 2.246094 34.375 6.605469zm0 0" fill="#c2001b"/><path d="m366.367188 325h-220.734376c-38.648437 0-69.984374 31.332031-69.984374 69.984375v42.6875c46.277343 45.941406 109.996093 74.328125 180.351562 74.328125s134.074219-28.386719 180.351562-74.328125v-42.6875c0-38.652344-31.335937-69.984375-69.984374-69.984375zm0 0" fill="#ff0335"/><path d="m436.351562 394.980469v42.691406c-46.273437 45.9375-109.992187 74.328125-180.351562 74.328125v-187h110.371094c21.457031 0 40.660156 9.648438 53.480468 24.859375 10.296876 12.179687 16.5 27.929687 16.5 45.121094zm0 0" fill="#c2001b"/><path d="m123.800781 413.328125v61.933594c9.601563 5.800781 19.625 10.976562 30 15.5v-77.433594zm0 0" fill="#c2001b"/><path d="m358.199219 413.328125v77.433594c10.375-4.523438 20.398437-9.699219 30-15.5v-61.933594zm0 0" fill="#901"/><path d="m362.566406 74.609375s-33.574218 69.515625-106.566406 69.515625-106.566406-69.515625-106.566406-69.515625c-45.046875 127.214844 106.566406 159.019531 106.566406 159.019531s151.613281-31.804687 106.566406-159.019531zm0 0" fill="#ffdf47"/><path d="m256 233.628906v-89.5c72.992188 0 106.566406-69.519531 106.566406-69.519531 45.046875 127.214844-106.566406 159.019531-106.566406 159.019531zm0 0" fill="#fec000"/><path d="m231.863281 472.476562-24.136719-41.808593 24.136719-41.808594h48.273438l24.136719 41.808594-24.136719 41.808593zm0 0" fill="#ffdf47"/><path d="m304.269531 430.671875-24.128906 41.796875h-24.140625v-83.609375h24.140625zm0 0" fill="#fec000"/><path d="m177.769531 134.566406s16.683594 26.332032 66.210938 38.003906c0 0-14.078125 31.339844-43.273438 16.496094-24.820312-12.613281-22.9375-54.5-22.9375-54.5zm0 0" fill="#fff"/><path d="m334.230469 134.566406s-16.683594 26.332032-66.210938 38.003906c0 0 14.078125 31.339844 43.273438 16.496094 24.820312-12.613281 22.9375-54.5 22.9375-54.5zm0 0" fill="#fff5cb"/></svg>